<?xml version="1.0" encoding="utf-8"?>
<!-- Generator: Adobe Illustrator 25.2.3, SVG Export Plug-In . SVG Version: 6.00 Build 0)  -->
<svg version="1.1" id="Layer_1" xmlns="http://www.w3.org/2000/svg" xmlns:xlink="http://www.w3.org/1999/xlink" x="0px" y="0px"
	 viewBox="0 0 155 22" style="enable-background:new 0 0 155 22;" xml:space="preserve">
<style type="text/css">
	.st0{fill:#231F20;}
	.st1{fill:#FFFFFF;}
</style>
<path class="st1" d="M3.09,19.94C1.81,19.57,0.78,19.09,0,18.49l1.36-3.02c0.74,0.55,1.63,0.98,2.65,1.31
	c1.02,0.33,2.05,0.5,3.07,0.5c1.14,0,1.98-0.17,2.53-0.51c0.55-0.34,0.82-0.79,0.82-1.35c0-0.41-0.16-0.76-0.48-1.03
	c-0.32-0.27-0.74-0.49-1.24-0.66c-0.5-0.17-1.19-0.35-2.05-0.55c-1.32-0.31-2.4-0.63-3.25-0.94c-0.84-0.31-1.57-0.82-2.17-1.51
	c-0.6-0.69-0.9-1.62-0.9-2.78c0-1.01,0.27-1.92,0.82-2.74s1.37-1.47,2.47-1.95c1.1-0.48,2.44-0.72,4.03-0.72
	c1.11,0,2.19,0.13,3.25,0.4c1.06,0.26,1.98,0.64,2.78,1.14l-1.24,3.05c-1.6-0.91-3.21-1.36-4.81-1.36c-1.12,0-1.95,0.18-2.49,0.55
	C4.61,6.69,4.34,7.16,4.34,7.76S4.65,8.8,5.27,9.09c0.62,0.29,1.57,0.57,2.84,0.86c1.32,0.31,2.4,0.63,3.25,0.94
	c0.84,0.31,1.57,0.81,2.17,1.49c0.6,0.68,0.9,1.59,0.9,2.75c0,0.99-0.28,1.9-0.83,2.71c-0.55,0.82-1.38,1.47-2.49,1.95
	C10,20.26,8.65,20.5,7.06,20.5C5.69,20.5,4.37,20.31,3.09,19.94z"/>
<path class="st1" d="M29.63,8.16c1.02,0.99,1.52,2.46,1.52,4.41v7.63h-3.87v-7.04c0-1.06-0.23-1.85-0.69-2.37
	c-0.46-0.52-1.13-0.78-2.01-0.78c-0.98,0-1.75,0.3-2.33,0.9c-0.58,0.6-0.87,1.5-0.87,2.69v6.59h-3.87V1.81h3.87v6.44
	c0.51-0.51,1.13-0.9,1.86-1.18c0.73-0.27,1.52-0.41,2.38-0.41C27.28,6.67,28.62,7.16,29.63,8.16z"/>
<path class="st1" d="M48.71,6.87V20.2h-3.67v-1.59c-0.51,0.58-1.12,1.02-1.83,1.33c-0.71,0.31-1.48,0.46-2.31,0.46
	c-1.75,0-3.14-0.5-4.16-1.51c-1.02-1.01-1.54-2.5-1.54-4.49V6.87h3.87v6.97c0,2.15,0.9,3.22,2.7,3.22c0.93,0,1.67-0.3,2.23-0.91
	c0.56-0.6,0.84-1.5,0.84-2.69V6.87H48.71z"/>
<path class="st1" d="M61.52,19.56c-0.38,0.28-0.85,0.49-1.4,0.63s-1.14,0.21-1.75,0.21c-1.59,0-2.81-0.4-3.68-1.21
	c-0.87-0.81-1.3-2-1.3-3.57v-5.48h-2.06V7.16h2.06V3.92h3.87v3.25h3.32v2.97h-3.32v5.43c0,0.56,0.14,1,0.43,1.3
	c0.29,0.31,0.7,0.46,1.23,0.46c0.61,0,1.13-0.17,1.56-0.5L61.52,19.56z"/>
<path class="st1" d="M72.63,19.56c-0.38,0.28-0.85,0.49-1.4,0.63c-0.55,0.14-1.14,0.21-1.75,0.21c-1.59,0-2.81-0.4-3.68-1.21
	c-0.87-0.81-1.3-2-1.3-3.57v-5.48h-2.06V7.16h2.06V3.92h3.87v3.25h3.32v2.97h-3.32v5.43c0,0.56,0.14,1,0.43,1.3
	c0.29,0.31,0.7,0.46,1.23,0.46c0.61,0,1.13-0.17,1.56-0.5L72.63,19.56z"/>
<path class="st1" d="M87.99,14.63H77.91c0.18,0.83,0.61,1.48,1.29,1.96c0.68,0.48,1.52,0.72,2.53,0.72c0.69,0,1.31-0.1,1.85-0.31
	c0.54-0.21,1.04-0.53,1.5-0.98l2.06,2.23c-1.26,1.44-3.09,2.16-5.5,2.16c-1.5,0-2.83-0.29-3.99-0.88c-1.16-0.59-2.05-1.4-2.68-2.44
	c-0.63-1.04-0.94-2.22-0.94-3.54c0-1.31,0.31-2.48,0.93-3.53c0.62-1.05,1.47-1.87,2.55-2.45c1.08-0.59,2.29-0.88,3.63-0.88
	c1.31,0,2.49,0.28,3.54,0.84c1.06,0.56,1.89,1.37,2.49,2.42c0.6,1.05,0.9,2.27,0.9,3.66C88.07,13.63,88.04,13.98,87.99,14.63z
	 M78.95,10.34c-0.59,0.5-0.96,1.17-1.09,2.03h6.57c-0.13-0.84-0.5-1.52-1.09-2.02c-0.59-0.5-1.32-0.76-2.18-0.76
	C80.28,9.59,79.54,9.84,78.95,10.34z"/>
<path class="st1" d="M96.83,7.16c0.78-0.33,1.69-0.5,2.71-0.5v3.57c-0.43-0.03-0.72-0.05-0.87-0.05c-1.11,0-1.97,0.31-2.6,0.93
	c-0.63,0.62-0.94,1.55-0.94,2.79v6.3h-3.87V6.87h3.69v1.76C95.42,7.98,96.05,7.5,96.83,7.16z"/>
<path class="st1" d="M113.74,7.52c1.02,0.57,1.81,1.37,2.39,2.4c0.58,1.03,0.87,2.24,0.87,3.61c0,1.37-0.29,2.57-0.87,3.61
	c-0.58,1.03-1.38,1.83-2.39,2.4s-2.14,0.86-3.38,0.86c-1.83,0-3.23-0.58-4.19-1.74v1.54h-3.69V1.81h3.87v6.47
	c0.97-1.07,2.31-1.61,4.02-1.61C111.59,6.67,112.72,6.95,113.74,7.52z M112.13,16.22c0.64-0.67,0.95-1.57,0.95-2.69
	c0-1.12-0.32-2.02-0.95-2.69c-0.64-0.67-1.45-1-2.44-1s-1.81,0.33-2.44,1c-0.64,0.67-0.95,1.57-0.95,2.69
	c0,1.12,0.32,2.02,0.95,2.69c0.64,0.67,1.45,1,2.44,1S111.49,16.89,112.13,16.22z"/>
<path class="st1" d="M150.61,20.2l-2.92-4.09l-3.02,4.09h-4.21l5.13-6.72l-4.96-6.62h4.34l2.83,3.89l2.9-3.89h4.11l-4.96,6.52
	L155,20.2H150.61z"/>
<g>
	<g>
		<path class="st1" d="M139.77,11.17l-5.33,9.22h-10.65l-5.32-9.22l5.32-9.22h10.65L139.77,11.17z M133.76,19.22l4.65-8.05
			l-4.65-8.05h-9.29l-4.65,8.05l4.65,8.05H133.76z"/>
	</g>
	<g>
		<path class="st1" d="M124.9,14.35c-0.5-0.15-1.02-0.26-1.55-0.34l2.07,3.58h7.41l0.89-1.54c-0.22-0.45-0.4-0.91-0.56-1.38l-1,1.74
			h-6.05L124.9,14.35z M132.14,5.93l0.91,1.58l0.85,1.47l1.27,2.2l-1.2,2.08c0.12,0.52,0.27,1.04,0.47,1.54l2.09-3.62l-2.19-3.79
			l-0.74-1.29l-0.77-1.33h-1.95c-0.28,0.41-0.59,0.8-0.92,1.17H132.14z M123.27,8.48l-0.75,1.31l-0.8,1.39l0.91,1.58
			c0.49,0.03,0.98,0.09,1.46,0.19l-1.02-1.77l0.96-1.66l0.86-1.5l1.2-2.08h2.21c0.4-0.36,0.77-0.75,1.11-1.17h-4L123.27,8.48z"/>
	</g>
	<g>
		<path class="st1" d="M131.84,20.01c-0.44-1.25-1.11-2.38-1.94-3.35h1.5c0.65,0.89,1.17,1.88,1.55,2.95L131.84,20.01z"/>
		<path class="st1" d="M121.89,11.8c0.25,0,0.49,0.01,0.74,0.02c0.45,0.03,0.89,0.08,1.33,0.16c2.49,0.45,4.75,1.69,6.46,3.5h-1.71
			c-1.11-0.94-2.41-1.65-3.81-2.07c-0.28-0.08-0.56-0.16-0.85-0.21c-0.23-0.05-0.47-0.09-0.7-0.12c-0.48-0.07-0.97-0.1-1.46-0.1
			c-0.62,0-1.24,0.05-1.84,0.16l-0.2-1.16C120.51,11.86,121.2,11.8,121.89,11.8z"/>
	</g>
	<g>
		<path class="st1" d="M132.95,2.73c-1.66,4.67-6.1,7.81-11.06,7.81c-0.69,0-1.38-0.06-2.04-0.18l0.2-1.16
			c0.6,0.11,1.22,0.16,1.84,0.16c4.46,0,8.46-2.83,9.95-7.03L132.95,2.73z"/>
	</g>
	<g>
		<path class="st1" d="M131.56,11.17c0-1.17,0.18-2.32,0.51-3.43l0.28,0.48l0.57,0.99c-0.12,0.64-0.18,1.3-0.18,1.96
			c0,2.55,0.92,5,2.59,6.92l-0.89,0.77c-0.56-0.64-1.04-1.34-1.44-2.08c-0.23-0.42-0.43-0.85-0.61-1.3
			C131.84,14.12,131.56,12.66,131.56,11.17z"/>
		<path class="st1" d="M134.43,3.48l0.89,0.77c-0.86,1-1.53,2.14-1.96,3.36l-0.47-0.81l-0.28-0.48
			C133.07,5.3,133.68,4.34,134.43,3.48z"/>
	</g>
</g>
</svg>
