<svg id="Layer_1" data-name="Layer 1" xmlns="http://www.w3.org/2000/svg" viewBox="0 0 155 22"><defs><style>.cls-1{fill:#fff;}</style></defs><path class="cls-1" d="M3.09,19.94A9.26,9.26,0,0,1,0,18.49l1.36-3A9.43,9.43,0,0,0,4,16.78a9.91,9.91,0,0,0,3.07.5,4.91,4.91,0,0,0,2.53-.51,1.55,1.55,0,0,0,.82-1.35,1.31,1.31,0,0,0-.49-1,3.72,3.72,0,0,0-1.24-.66q-.75-.24-2-.54a30.53,30.53,0,0,1-3.25-.94,5.3,5.3,0,0,1-2.17-1.52A4.09,4.09,0,0,1,.35,8a4.87,4.87,0,0,1,.81-2.74A5.53,5.53,0,0,1,3.63,3.27a10.05,10.05,0,0,1,4-.72,13.58,13.58,0,0,1,3.25.4,9.37,9.37,0,0,1,2.77,1.14L12.44,7.14A9.63,9.63,0,0,0,7.63,5.78a4.56,4.56,0,0,0-2.49.54,1.68,1.68,0,0,0-.8,1.44,1.42,1.42,0,0,0,.93,1.33,15.12,15.12,0,0,0,2.84.85,28.09,28.09,0,0,1,3.24.94,5.35,5.35,0,0,1,2.17,1.49,4,4,0,0,1,.91,2.75,4.79,4.79,0,0,1-.83,2.72,5.68,5.68,0,0,1-2.5,1.94,10.1,10.1,0,0,1-4,.72A14.21,14.21,0,0,1,3.09,19.94Z"/><path class="cls-1" d="M29.63,8.16a5.88,5.88,0,0,1,1.53,4.41V20.2H27.29v-7a3.48,3.48,0,0,0-.69-2.36,2.58,2.58,0,0,0-2-.79,3.09,3.09,0,0,0-2.33.91,3.74,3.74,0,0,0-.87,2.69V20.2H17.52V1.81h3.87V8.25a5.08,5.08,0,0,1,1.86-1.17,6.58,6.58,0,0,1,2.38-.41A5.44,5.44,0,0,1,29.63,8.16Z"/><path class="cls-1" d="M48.71,6.87V20.2H45V18.62a5.15,5.15,0,0,1-1.84,1.32,6.32,6.32,0,0,1-6.47-1.05A6,6,0,0,1,35.2,14.4V6.87h3.86v7c0,2.15.9,3.22,2.71,3.22a2.92,2.92,0,0,0,2.23-.9,3.82,3.82,0,0,0,.84-2.69V6.87Z"/><path class="cls-1" d="M61.52,19.56a4,4,0,0,1-1.4.63,7.11,7.11,0,0,1-1.75.21,5.2,5.2,0,0,1-3.68-1.21,4.64,4.64,0,0,1-1.3-3.57V10.14H51.33v-3h2.06V3.92h3.87V7.16h3.32v3H57.26v5.43a1.82,1.82,0,0,0,.43,1.3,1.64,1.64,0,0,0,1.23.46,2.49,2.49,0,0,0,1.56-.5Z"/><path class="cls-1" d="M72.63,19.56a4,4,0,0,1-1.4.63,7.17,7.17,0,0,1-1.75.21,5.18,5.18,0,0,1-3.68-1.21,4.64,4.64,0,0,1-1.3-3.57V10.14H62.44v-3H64.5V3.92h3.86V7.16h3.32v3H68.36v5.43a1.83,1.83,0,0,0,.44,1.3,1.61,1.61,0,0,0,1.22.46,2.52,2.52,0,0,0,1.57-.5Z"/><path class="cls-1" d="M88,14.63H77.91a3.15,3.15,0,0,0,1.28,1.95,4.29,4.29,0,0,0,2.53.72A5.05,5.05,0,0,0,83.57,17a4.27,4.27,0,0,0,1.5-1l2.06,2.23a6.92,6.92,0,0,1-5.51,2.16,8.68,8.68,0,0,1-4-.88A6.45,6.45,0,0,1,75,17.08,6.71,6.71,0,0,1,74,13.53,6.82,6.82,0,0,1,74.94,10,6.49,6.49,0,0,1,77.5,7.55a7.9,7.9,0,0,1,7.17,0,6.11,6.11,0,0,1,2.49,2.42,7.14,7.14,0,0,1,.91,3.65C88.07,13.63,88,14,88,14.63Zm-9-4.29a3.11,3.11,0,0,0-1.09,2h6.57a3.22,3.22,0,0,0-1.1-2,3.55,3.55,0,0,0-4.38,0Z"/><path class="cls-1" d="M96.83,7.16a7,7,0,0,1,2.72-.49v3.57c-.43,0-.72-.05-.87-.05a3.52,3.52,0,0,0-2.6.93,3.75,3.75,0,0,0-1,2.79V20.2H91.27V6.87H95V8.63A4.35,4.35,0,0,1,96.83,7.16Z"/><path class="cls-1" d="M113.74,7.52a6.22,6.22,0,0,1,2.39,2.41,7.21,7.21,0,0,1,.87,3.6,7.23,7.23,0,0,1-.87,3.61,6.22,6.22,0,0,1-2.39,2.41,6.83,6.83,0,0,1-3.39.85,5.16,5.16,0,0,1-4.19-1.73V20.2h-3.69V1.81h3.87V8.28a5.15,5.15,0,0,1,4-1.61A6.83,6.83,0,0,1,113.74,7.52Zm-1.61,8.7a3.76,3.76,0,0,0,1-2.69,3.73,3.73,0,0,0-1-2.68,3.46,3.46,0,0,0-4.89,0,3.73,3.73,0,0,0-.95,2.68,3.76,3.76,0,0,0,.95,2.69,3.46,3.46,0,0,0,4.89,0Z"/><path class="cls-1" d="M150.61,20.2l-2.92-4.09-3,4.09h-4.21l5.13-6.71-5-6.62H145l2.83,3.89,2.9-3.89h4.11l-5,6.52L155,20.2Z"/><path class="cls-1" d="M139.77,11.17l-5.33,9.23H123.79l-5.32-9.23L123.79,2h10.65Zm-6,8,4.65-8-4.65-8h-9.29l-4.65,8.05,4.65,8Z"/><path class="cls-1" d="M124.9,14.35a9.12,9.12,0,0,0-1.55-.34l2.06,3.58h7.41l.89-1.54a11.07,11.07,0,0,1-.56-1.38l-1,1.74h-6Zm7.24-8.42.92,1.58L133.9,9l1.27,2.19L134,13.25a10.51,10.51,0,0,0,.47,1.54l2.09-3.62-2.19-3.79-.75-1.29-.77-1.33h-1.94A11.64,11.64,0,0,1,130,5.93Zm-8.87,2.55-.76,1.3-.8,1.39.91,1.58a11.81,11.81,0,0,1,1.47.19l-1-1.77,1-1.66.86-1.5,1.2-2.08h2.21a10.24,10.24,0,0,0,1.11-1.17h-4Z"/><path class="cls-1" d="M131.84,20a10.44,10.44,0,0,0-1.94-3.35h1.49A11.56,11.56,0,0,1,133,19.61Z"/><path class="cls-1" d="M121.89,11.8l.73,0A12,12,0,0,1,124,12a11.7,11.7,0,0,1,6.46,3.49h-1.71a10.53,10.53,0,0,0-3.81-2.06,8.15,8.15,0,0,0-.85-.22c-.23,0-.47-.09-.7-.12a10.14,10.14,0,0,0-1.46-.1,11.23,11.23,0,0,0-1.84.15L119.84,12A11.66,11.66,0,0,1,121.89,11.8Z"/><path class="cls-1" d="M133,2.73a11.75,11.75,0,0,1-11.07,7.81,11.62,11.62,0,0,1-2-.17l.21-1.16a10.12,10.12,0,0,0,1.83.16,10.59,10.59,0,0,0,10-7Z"/><path class="cls-1" d="M131.56,11.17a11.63,11.63,0,0,1,.51-3.43l.27.48.58,1a9.87,9.87,0,0,0-.19,2,10.55,10.55,0,0,0,2.59,6.92l-.89.77A11.35,11.35,0,0,1,133,16.78a10.82,10.82,0,0,1-.61-1.29A11.76,11.76,0,0,1,131.56,11.17Z"/><path class="cls-1" d="M134.43,3.48l.88.77a10.74,10.74,0,0,0-2,3.36l-.47-.81-.28-.48A11.88,11.88,0,0,1,134.43,3.48Z"/></svg>